<svg xmlns="http://www.w3.org/2000/svg" viewBox="0 0 997.96 997.96"><defs><style>.cls-1{fill:#121212;}.cls-2{fill:#fff;}</style></defs><g id="Layer_2" data-name="Layer 2"><g id="Layer_1-2" data-name="Layer 1"><rect class="cls-1" width="997.96" height="997.96" rx="91.41"/><path class="cls-2" d="M695.27,256.85V684.49a20.79,20.79,0,0,1-2.13,9.22A18.1,18.1,0,0,1,681,705.14L504.15,761.31a19,19,0,0,1-11.41,0L315.85,705.14c-10.12-3.21-14.11-12.2-13-20.5V256.85A21.08,21.08,0,0,1,324,235.77H674.19A21.08,21.08,0,0,1,695.27,256.85Z"/><circle class="cls-1" cx="496.43" cy="479.49" r="8.87"/><path class="cls-1" d="M519.47,426.49a29.24,29.24,0,0,1,5.77.69,55.43,55.43,0,0,0,12.61-23.07,39.81,39.81,0,0,0-15.41,3l-14.78,21.64A29.48,29.48,0,0,1,519.47,426.49Z"/><path class="cls-1" d="M551.4,445.08a4.28,4.28,0,1,0-5.91-1.31A4.28,4.28,0,0,0,551.4,445.08Z"/><path class="cls-1" d="M526.3,400.55a4.8,4.8,0,1,0-1.36-6.66A4.8,4.8,0,0,0,526.3,400.55Z"/><path class="cls-1" d="M539.83,399.93l20.42-25.39a49.45,49.45,0,0,0-2-19.41,69.12,69.12,0,0,0-22.91,23.32,35.37,35.37,0,0,1,2.91,6.62A36.42,36.42,0,0,1,539.83,399.93Z"/><path class="cls-1" d="M457.87,404.11a55.73,55.73,0,0,0,12.61,23.07,29.14,29.14,0,0,1,17.59,1.57l-14.79-21.64a39.81,39.81,0,0,0-15.41-3Z"/><path class="cls-1" d="M486,375.49a39.43,39.43,0,0,1,11.55,11.28q-.25-17.59-.53-35.2a53.68,53.68,0,0,0-15.05-14.78,74.58,74.58,0,0,0-3,35.2A38.56,38.56,0,0,1,486,375.49Z"/><path class="cls-1" d="M491.19,416.62a28.33,28.33,0,0,1,2.9-5,55.86,55.86,0,0,0-16.28-20.65,39.66,39.66,0,0,0-3.28,15.36l14.11,22.08A29.48,29.48,0,0,1,491.19,416.62Z"/><path class="cls-1" d="M498.43,386.77A39.49,39.49,0,0,1,510,375.49a38.5,38.5,0,0,1,7-3.5,74.76,74.76,0,0,0-3-35.2,53.68,53.68,0,0,0-15,14.78Z"/><circle class="cls-1" cx="497.5" cy="334.91" r="6.45"/><path class="cls-1" d="M509,399.68a55.64,55.64,0,0,0-7.39,11.9,29,29,0,0,1,2.91,5,29.43,29.43,0,0,1,2.54,11.75l14.12-22.08a40.16,40.16,0,0,0-3.28-15.36A55.8,55.8,0,0,0,509,399.68Z"/><path class="cls-1" d="M579.6,459.92a49.3,49.3,0,0,0-12.06-3.21,25.7,25.7,0,0,1-3.54,3.78,26.08,26.08,0,0,1-9.36,5.22l22.48,6.3a35.54,35.54,0,0,0,12.24-6.78A49.54,49.54,0,0,0,579.6,459.92Z"/><path class="cls-1" d="M586.22,480.18a4.28,4.28,0,1,0-2.88-5.32A4.28,4.28,0,0,0,586.22,480.18Z"/><circle class="cls-1" cx="600.77" cy="424.98" r="5.39" transform="translate(-134.82 403.91) rotate(-33.63)"/><path class="cls-1" d="M593.53,431.19a44.92,44.92,0,0,0-6.56-4.26l-29.31,2.73a32.32,32.32,0,0,1,14,14.08,62.54,62.54,0,0,0,29-5.63A44.59,44.59,0,0,0,593.53,431.19Z"/><path class="cls-1" d="M565.92,418.27a33.12,33.12,0,0,1-8.34,10.62l29.21-3.62a44.81,44.81,0,0,0,10.93-13.84A62.39,62.39,0,0,0,583.78,410a63,63,0,0,0-15.59,2.14A31.88,31.88,0,0,1,565.92,418.27Z"/><path class="cls-1" d="M535,465.06a49.35,49.35,0,0,0,10.71-6.4,50.58,50.58,0,0,0,7.92-7.8A35.53,35.53,0,0,0,540,447.71L520.1,460A25.79,25.79,0,0,1,535,465.06Z"/><path class="cls-1" d="M539.26,446.6a35.74,35.74,0,0,0,2-5.9,35,35,0,0,0,.95-7.79,49.57,49.57,0,0,0-20.74,10.9A24.83,24.83,0,0,1,522,449a26.19,26.19,0,0,1-2.19,10.49Z"/><path class="cls-1" d="M555.39,399.27a34.84,34.84,0,0,1,7,1.64,69,69,0,0,0,18.69-26.82,49.42,49.42,0,0,0-19.45,1.64l-21.18,24.75A36.47,36.47,0,0,1,555.39,399.27Z"/><path class="cls-1" d="M567.33,368.14a6,6,0,1,0-.79-8.41A6,6,0,0,0,567.33,368.14Z"/><path class="cls-1" d="M422.88,484.44a49.52,49.52,0,0,0,11.86-3.89,25.8,25.8,0,0,1,.9-5.1,26.35,26.35,0,0,1,5-9.47l-22.27,7a34.43,34.43,0,0,0-3.5,5.13,35.39,35.39,0,0,0-3.06,7.23A49.74,49.74,0,0,0,422.88,484.44Z"/><path class="cls-1" d="M423.75,443.74a32.5,32.5,0,0,1,3.53-5.5,33.06,33.06,0,0,1,10.42-8.58l-29.3-2.73a45,45,0,0,0-6.57,4.26,44.48,44.48,0,0,0-7.07,6.92,62.54,62.54,0,0,0,29,5.63Z"/><path class="cls-1" d="M450.21,556.88l-32.52-52.4h-17.2V587h17.2V534.84L450.21,587h16.66v-82.5H450.21Z"/><path class="cls-1" d="M408.58,425.27l29.21,3.62a33.12,33.12,0,0,1-8.34-10.62,32.66,32.66,0,0,1-2.28-6.13,62.44,62.44,0,0,0-29.52-.71,44.81,44.81,0,0,0,10.93,13.84Z"/><path class="cls-1" d="M492.65,605.09l-.76,2.84h1C492.88,607.09,492.79,606.14,492.65,605.09Z"/><circle class="cls-1" cx="394.6" cy="424.98" r="5.39" transform="translate(-139 197.85) rotate(-24.07)"/><path class="cls-1" d="M495,586.06a1,1,0,0,0,.85-1,1,1,0,0,0-.25-.65,1,1,0,0,0-.6-.31.3.3,0,0,0-.13,0,.34.34,0,0,0-.14,0,1,1,0,0,0-.85,1,1,1,0,0,0,.25.65,1,1,0,0,0,.6.31h0v24.14H495Z"/><polygon class="cls-1" points="608.76 520.66 608.76 504.48 563.07 504.48 563.07 586.98 608.76 586.98 608.76 571.54 578.78 571.54 578.78 550.43 608.76 550.43 608.76 535.26 578.78 535.26 578.78 520.66 608.76 520.66"/><polygon class="cls-1" points="535.46 504.48 519.48 504.48 519.48 586.98 556.74 586.98 556.74 572.29 535.46 572.29 535.46 504.48"/><path class="cls-1" d="M583.3,485.64a35.73,35.73,0,0,0-6.55-12.36l-22.28-7a26.2,26.2,0,0,1,5,9.47,25.09,25.09,0,0,1,.9,5.1,49.76,49.76,0,0,0,22.94,4.77Z"/><path class="cls-1" d="M403.56,477a4.28,4.28,0,1,0,2.89-5.32A4.29,4.29,0,0,0,403.56,477Z"/><path class="cls-1" d="M454.79,399.93a36.42,36.42,0,0,1,1.56-14.86,35.37,35.37,0,0,1,2.91-6.62,69.22,69.22,0,0,0-22.9-23.32,49.17,49.17,0,0,0-2.07,10.75,50.09,50.09,0,0,0,.08,8.66Z"/><path class="cls-1" d="M510.13,500.44a56.11,56.11,0,0,1,20.43-22,54.61,54.61,0,0,1,11-5.11A46.82,46.82,0,0,0,522.22,479c-7.16,3.93-17,17.57-19.61,20.69-1.27,1.53-3.64,4.45-6.72,4.3-2.69-.14-4.55-2.62-5.64-4-.45-.59-10.41-13.55-17.2-20a57.87,57.87,0,0,0-12.33-8.68,71.21,71.21,0,0,0-16.43-6.57A76.85,76.85,0,0,1,456.66,472c5.17,3.73,17.9,13.15,24.18,29.29,3.24,8.32,3.32,15.31,3.49,29.29a185.71,185.71,0,0,1-2.41,32.25l5.91,6.72a79.47,79.47,0,0,0-2.42,8.6c-.62,2.77-1.05,5.39-1.34,7.79a37.37,37.37,0,0,1,8.58,19.18h0c.14,1,.23,2,.29,2.85h-1.05a3,3,0,0,0,2.79,2.27V586.07a1,1,0,0,1-.6-.32,1,1,0,0,1-.25-.66,1,1,0,0,1,.85-1H495a1,1,0,0,1,.85,1,1,1,0,0,1-.85,1V610.2a3,3,0,0,0,2.79-2.27h-1c0-.86,0-1.88.06-3a33.05,33.05,0,0,1,1.82-8.78,33.43,33.43,0,0,1,6.72-11.29A60.55,60.55,0,0,0,500.73,570l5.64-5.64A130.77,130.77,0,0,1,504,529.2C504.72,517.9,505.27,509.92,510.13,500.44Z"/><path class="cls-1" d="M473.32,449a25.58,25.58,0,0,1,.53-5.15,49.46,49.46,0,0,0-20.73-10.9,35,35,0,0,0,.95,7.79,35.79,35.79,0,0,0,1.94,5.9l19.5,12.85A26,26,0,0,1,473.32,449Z"/><path class="cls-1" d="M449.78,443.77a4.28,4.28,0,1,0-5.9,1.31A4.27,4.27,0,0,0,449.78,443.77Z"/><path class="cls-1" d="M469.43,400.55a4.81,4.81,0,1,0-6.66-1.36A4.8,4.8,0,0,0,469.43,400.55Z"/><path class="cls-1" d="M418,471.69l22.48-6.3a26.24,26.24,0,0,1-9.36-5.22,25.06,25.06,0,0,1-3.53-3.78,49.76,49.76,0,0,0-21.83,8.52A35.54,35.54,0,0,0,418,471.69Z"/><path class="cls-1" d="M449.59,458.66a49.35,49.35,0,0,0,10.71,6.4A25.79,25.79,0,0,1,475.18,460L455.3,447.71a35.53,35.53,0,0,0-13.63,3.15A50.14,50.14,0,0,0,449.59,458.66Z"/><path class="cls-1" d="M427.3,368.14a6,6,0,1,0-8.41-.79A6,6,0,0,0,427.3,368.14Z"/><path class="cls-1" d="M432.19,400.91a35,35,0,0,1,7-1.64,36.47,36.47,0,0,1,14.9,1.21L433,375.73a49.42,49.42,0,0,0-19.45-1.64,69,69,0,0,0,18.69,26.82Z"/></g></g></svg>