<svg xmlns="http://www.w3.org/2000/svg" viewBox="0 0 392.57 526.42"><defs><style>.cls-1{fill:#121212;}.cls-2{fill:#fff;}</style></defs><g id="Layer_2" data-name="Layer 2"><g id="Layer_1-2" data-name="Layer 1"><path class="cls-1" d="M392.57,21.08V448.72a20.83,20.83,0,0,1-2.13,9.22,18.08,18.08,0,0,1-12.09,11.43l-176.9,56.17a19,19,0,0,1-11.4,0L13.16,469.37C3,466.16-.95,457.16.19,448.87V21.08A21.07,21.07,0,0,1,21.27,0H371.5A21.07,21.07,0,0,1,392.57,21.08Z"/><circle class="cls-2" cx="193.73" cy="243.71" r="8.87"/><path class="cls-2" d="M216.77,190.71a28.56,28.56,0,0,1,5.78.7,55.69,55.69,0,0,0,12.61-23.08,40,40,0,0,0-8.76.93,39.19,39.19,0,0,0-6.65,2.08L205,193A29.5,29.5,0,0,1,216.77,190.71Z"/><path class="cls-2" d="M248.71,209.31A4.28,4.28,0,1,0,242.8,208,4.28,4.28,0,0,0,248.71,209.31Z"/><path class="cls-2" d="M223.6,164.77a4.8,4.8,0,1,0-1.36-6.65A4.81,4.81,0,0,0,223.6,164.77Z"/><path class="cls-2" d="M237.14,164.16q10.2-12.71,20.42-25.39a50.2,50.2,0,0,0,.07-8.66,49.33,49.33,0,0,0-2.06-10.76,69.14,69.14,0,0,0-22.9,23.33,36.23,36.23,0,0,1,2.91,6.61A36.82,36.82,0,0,1,237.14,164.16Z"/><path class="cls-2" d="M155.17,168.33A56.36,56.36,0,0,0,159.73,180a55.69,55.69,0,0,0,8.06,11.46,28.45,28.45,0,0,1,5.77-.7A29.5,29.5,0,0,1,185.37,193l-14.78-21.64a39.19,39.19,0,0,0-6.65-2.08A40.09,40.09,0,0,0,155.17,168.33Z"/><path class="cls-2" d="M183.25,139.71A39.63,39.63,0,0,1,194.81,151l-.54-35.2a54.17,54.17,0,0,0-5.91-7.26,53.54,53.54,0,0,0-9.14-7.52,74.76,74.76,0,0,0-2.95,35.2A39.06,39.06,0,0,1,183.25,139.71Z"/><path class="cls-2" d="M188.49,180.85a29,29,0,0,1,2.91-5,55.74,55.74,0,0,0-16.29-20.65,40.17,40.17,0,0,0-3.28,15.35L186,192.6A29.4,29.4,0,0,1,188.49,180.85Z"/><path class="cls-2" d="M195.74,151a39.57,39.57,0,0,1,11.55-11.29,39.12,39.12,0,0,1,7-3.49,74.58,74.58,0,0,0-3-35.2,53.54,53.54,0,0,0-9.14,7.52,54.17,54.17,0,0,0-5.91,7.26Q196,133.4,195.74,151Z"/><circle class="cls-2" cx="194.81" cy="99.14" r="6.45"/><path class="cls-2" d="M206.32,163.91a55.55,55.55,0,0,0-7.38,11.9,28.33,28.33,0,0,1,2.9,5,29.44,29.44,0,0,1,2.55,11.75q7.05-11,14.11-22.09a39.67,39.67,0,0,0-3.28-15.35A55.8,55.8,0,0,0,206.32,163.91Z"/><path class="cls-2" d="M276.9,224.14a50.11,50.11,0,0,0-12.06-3.21,25.16,25.16,0,0,1-3.54,3.79,26.24,26.24,0,0,1-9.35,5.21l22.48,6.3a34.43,34.43,0,0,0,5.73-2.39,35.74,35.74,0,0,0,6.5-4.38A49.23,49.23,0,0,0,276.9,224.14Z"/><path class="cls-2" d="M283.53,244.41a4.28,4.28,0,1,0-2.89-5.32A4.27,4.27,0,0,0,283.53,244.41Z"/><circle class="cls-2" cx="298.07" cy="189.21" r="5.39" transform="translate(-54.9 196.78) rotate(-33.63)"/><path class="cls-2" d="M290.84,195.42a44.1,44.1,0,0,0-6.56-4.26L255,193.88a33.11,33.11,0,0,1,10.42,8.59,31.84,31.84,0,0,1,3.53,5.49,62.55,62.55,0,0,0,29-5.63A45,45,0,0,0,290.84,195.42Z"/><path class="cls-2" d="M263.22,182.49a32.87,32.87,0,0,1-8.34,10.62l29.21-3.62a43.93,43.93,0,0,0,5.5-5.56,44.4,44.4,0,0,0,5.43-8.28,62.62,62.62,0,0,0-29.52.72A32.59,32.59,0,0,1,263.22,182.49Z"/><path class="cls-2" d="M232.28,229.29A49.86,49.86,0,0,0,243,222.88a48.88,48.88,0,0,0,7.92-7.8,35.72,35.72,0,0,0-7.46-2.42,35.18,35.18,0,0,0-6.17-.72l-19.87,12.25a26.28,26.28,0,0,1,10.43,2.44A25.88,25.88,0,0,1,232.28,229.29Z"/><path class="cls-2" d="M236.57,210.82a35.29,35.29,0,0,0,2-5.89,36.34,36.34,0,0,0,.95-7.79A49.57,49.57,0,0,0,218.73,208a25.72,25.72,0,0,1-1.65,15.63Z"/><path class="cls-2" d="M252.69,163.49a36.25,36.25,0,0,1,7,1.64,69.06,69.06,0,0,0,18.7-26.81A49.7,49.7,0,0,0,259,140L237.8,164.7A36.77,36.77,0,0,1,252.69,163.49Z"/><path class="cls-2" d="M264.63,132.36a6,6,0,1,0-.78-8.4A6,6,0,0,0,264.63,132.36Z"/><path class="cls-2" d="M120.18,248.67A49.81,49.81,0,0,0,132,244.78a25.8,25.8,0,0,1,.9-5.1,26.34,26.34,0,0,1,5-9.48l-22.28,7a35.32,35.32,0,0,0-6.56,12.35A49.62,49.62,0,0,0,120.18,248.67Z"/><path class="cls-2" d="M121.05,208a32.56,32.56,0,0,1,3.54-5.49A33,33,0,0,1,135,193.88l-29.31-2.72a44.1,44.1,0,0,0-6.56,4.26,45,45,0,0,0-7.08,6.91,62.54,62.54,0,0,0,29,5.63Z"/><path class="cls-2" d="M147.51,321.11,115,268.7H97.8v82.5H115V299.07q16.26,26.07,32.51,52.13h16.66V268.7H147.51Z"/><path class="cls-2" d="M105.88,189.49l29.21,3.62a33.14,33.14,0,0,1-8.34-10.62,32.49,32.49,0,0,1-2.27-6.12A62.62,62.62,0,0,0,95,175.65a44.67,44.67,0,0,0,10.92,13.84Z"/><path class="cls-2" d="M190,369.32l-.76,2.84h1C190.19,371.32,190.1,370.37,190,369.32Z"/><circle class="cls-2" cx="91.9" cy="189.21" r="5.39" transform="translate(-69.17 53.92) rotate(-24.07)"/><path class="cls-2" d="M192.25,350.29a1,1,0,0,0,0-1.94H192a1,1,0,0,0-.61,1.62,1,1,0,0,0,.61.32h0v24.14h.26Z"/><polygon class="cls-2" points="306.06 284.89 306.06 268.7 260.38 268.7 260.38 351.2 306.06 351.2 306.06 335.77 276.08 335.77 276.08 314.66 306.06 314.66 306.06 299.49 276.08 299.49 276.08 284.89 306.06 284.89"/><polygon class="cls-2" points="232.76 268.7 216.79 268.7 216.79 351.2 254.05 351.2 254.05 336.51 232.76 336.51 232.76 268.7"/><path class="cls-2" d="M280.61,249.86a35.32,35.32,0,0,0-6.56-12.35l-22.28-7a26.34,26.34,0,0,1,5,9.48,25.8,25.8,0,0,1,.9,5.1,49.57,49.57,0,0,0,22.94,4.76Z"/><path class="cls-2" d="M100.87,241.2a4.28,4.28,0,1,0,2.88-5.31A4.27,4.27,0,0,0,100.87,241.2Z"/><path class="cls-2" d="M152.09,164.16a36.82,36.82,0,0,1,1.56-14.87,36.23,36.23,0,0,1,2.91-6.61,69.14,69.14,0,0,0-22.9-23.33,49.93,49.93,0,0,0-2.06,10.76,49.12,49.12,0,0,0,.08,8.66Q141.88,151.46,152.09,164.16Z"/><path class="cls-2" d="M207.44,264.67a56,56,0,0,1,20.42-22,54,54,0,0,1,11-5.1,46.89,46.89,0,0,0-19.35,5.64c-7.17,3.94-17.05,17.58-19.62,20.69-1.27,1.53-3.64,4.46-6.72,4.3-2.68-.13-4.55-2.61-5.64-4-.45-.59-10.4-13.55-17.2-19.95A57.73,57.73,0,0,0,158,235.5a70.48,70.48,0,0,0-16.43-6.57A76.65,76.65,0,0,1,154,236.18c5.17,3.74,17.9,13.16,24.19,29.3,3.24,8.31,3.32,15.31,3.49,29.29A186.63,186.63,0,0,1,179.22,327l5.91,6.71a83.22,83.22,0,0,0-2.42,8.6c-.62,2.78-1.05,5.39-1.34,7.8a37,37,0,0,1,5.38,8.33A37.66,37.66,0,0,1,190,369.31h0c.14,1.06.23,2,.28,2.85h-1.05a3,3,0,0,0,2.8,2.27V350.29a1,1,0,0,1-.61-.32,1,1,0,0,1,.61-1.62.27.27,0,0,1,.13,0,.3.3,0,0,1,.13,0,1,1,0,0,1,0,1.94v24.14a3,3,0,0,0,2.79-2.27H194c0-.86,0-1.89.07-3a33.3,33.3,0,0,1,8.53-20.07A59.42,59.42,0,0,0,198,334.27l5.65-5.64a130.84,130.84,0,0,1-2.42-35.21C202,282.13,202.57,274.14,207.44,264.67Z"/><path class="cls-2" d="M170.62,213.19a26.19,26.19,0,0,1,.54-5.15,49.57,49.57,0,0,0-20.74-10.9,36.34,36.34,0,0,0,1,7.79,35.29,35.29,0,0,0,1.95,5.89l19.49,12.85A26.34,26.34,0,0,1,170.62,213.19Z"/><path class="cls-2" d="M147.09,208a4.28,4.28,0,1,0-5.91,1.31A4.28,4.28,0,0,0,147.09,208Z"/><path class="cls-2" d="M166.73,164.77a4.8,4.8,0,1,0-6.65-1.36A4.8,4.8,0,0,0,166.73,164.77Z"/><path class="cls-2" d="M115.28,235.91l22.49-6.3a25.65,25.65,0,0,1-12.9-9,50.23,50.23,0,0,0-12.06,3.21,49.23,49.23,0,0,0-9.76,5.32,35.5,35.5,0,0,0,6.51,4.38A34.36,34.36,0,0,0,115.28,235.91Z"/><path class="cls-2" d="M146.9,222.88a49.62,49.62,0,0,0,10.71,6.41,25.5,25.5,0,0,1,4.44-2.66,26.28,26.28,0,0,1,10.43-2.44l-19.87-12.25A35.64,35.64,0,0,0,139,215.08,48.88,48.88,0,0,0,146.9,222.88Z"/><path class="cls-2" d="M124.6,132.36a6,6,0,1,0-8.4-.78A6,6,0,0,0,124.6,132.36Z"/><path class="cls-2" d="M129.5,165.13a36.25,36.25,0,0,1,7-1.64,36.77,36.77,0,0,1,14.89,1.21L130.25,140a49.7,49.7,0,0,0-19.45-1.63,69.44,69.44,0,0,0,7.2,13.74A68.68,68.68,0,0,0,129.5,165.13Z"/></g></g></svg>