<svg xmlns="http://www.w3.org/2000/svg" viewBox="0 0 997.96 997.96"><defs><style>.cls-1{fill:#121212;}.cls-2{fill:#fff;}</style></defs><g id="Layer_2" data-name="Layer 2"><g id="Layer_1-2" data-name="Layer 1"><rect class="cls-1" width="997.96" height="997.96" rx="91.41"/><path class="cls-2" d="M682,219.13V617.92a19.38,19.38,0,0,1-2,8.6,16.86,16.86,0,0,1-11.28,10.66l-165,52.38a17.69,17.69,0,0,1-10.63,0l-165-52.38c-9.44-3-13.15-11.38-12.09-19.12V219.13a19.66,19.66,0,0,1,19.66-19.66h326.6A19.66,19.66,0,0,1,682,219.13Z"/><circle class="cls-1" cx="496.6" cy="426.75" r="8.27"/><path class="cls-1" d="M518.09,377.32a27.12,27.12,0,0,1,5.38.65,51.91,51.91,0,0,0,11.76-21.52,37.25,37.25,0,0,0-8.17.86,37.77,37.77,0,0,0-6.2,1.94l-13.79,20.19A27.35,27.35,0,0,1,518.09,377.32Z"/><path class="cls-1" d="M547.86,394.66a4,4,0,1,0-5.5-1.22A4,4,0,0,0,547.86,394.66Z"/><path class="cls-1" d="M524.46,353.13a4.48,4.48,0,1,0-1.27-6.2A4.47,4.47,0,0,0,524.46,353.13Z"/><path class="cls-1" d="M537.08,352.56l19-23.68a46.29,46.29,0,0,0-1.85-18.1,64.53,64.53,0,0,0-21.36,21.75,33.58,33.58,0,0,1,4.17,20Z"/><path class="cls-1" d="M460.64,356.45A51.79,51.79,0,0,0,472.41,378a26.93,26.93,0,0,1,16.39,1.47L475,359.25a38.4,38.4,0,0,0-6.2-1.94A37.28,37.28,0,0,0,460.64,356.45Z"/><path class="cls-1" d="M486.83,329.76a36.88,36.88,0,0,1,10.77,10.53q-.24-16.41-.5-32.83a49.7,49.7,0,0,0-14-13.78,69.68,69.68,0,0,0-2.76,32.83A35.52,35.52,0,0,1,486.83,329.76Z"/><path class="cls-1" d="M491.71,368.12a27.17,27.17,0,0,1,2.71-4.7,52.29,52.29,0,0,0-6.89-11.1,51.74,51.74,0,0,0-8.29-8.16,37.35,37.35,0,0,0-2.42,7.86,36.71,36.71,0,0,0-.64,6.47l13.16,20.59A27.47,27.47,0,0,1,491.71,368.12Z"/><path class="cls-1" d="M498.47,340.29a36.88,36.88,0,0,1,10.77-10.53,36.16,36.16,0,0,1,6.52-3.25A69.68,69.68,0,0,0,513,293.68a50.35,50.35,0,0,0-8.52,7,51,51,0,0,0-5.51,6.77Q498.72,323.87,498.47,340.29Z"/><circle class="cls-1" cx="497.6" cy="291.92" r="6.01"/><path class="cls-1" d="M508.34,352.32a52.29,52.29,0,0,0-6.89,11.1,25.94,25.94,0,0,1,2.71,4.7,27.51,27.51,0,0,1,2.38,11l13.16-20.59a36.81,36.81,0,0,0-.65-6.47,37.39,37.39,0,0,0-2.41-7.86A52.16,52.16,0,0,0,508.34,352.32Z"/><path class="cls-1" d="M574.16,408.5a46.53,46.53,0,0,0-11.25-3,23.33,23.33,0,0,1-3.3,3.53,24.37,24.37,0,0,1-8.72,4.87l21,5.87a32.63,32.63,0,0,0,5.34-2.23,33.11,33.11,0,0,0,6.07-4.09A45.71,45.71,0,0,0,574.16,408.5Z"/><path class="cls-1" d="M580.34,427.39a4,4,0,1,0-2.69-4.95A4,4,0,0,0,580.34,427.39Z"/><circle class="cls-1" cx="593.9" cy="375.92" r="5.03" transform="translate(-108.79 391.89) rotate(-33.63)"/><path class="cls-1" d="M587.16,381.71a41.61,41.61,0,0,0-6.12-4l-27.33,2.54a30.83,30.83,0,0,1,9.71,8,29.92,29.92,0,0,1,3.3,5.13,58.53,58.53,0,0,0,27-5.25A42,42,0,0,0,587.16,381.71Z"/><path class="cls-1" d="M561.4,369.66a30.73,30.73,0,0,1-7.77,9.9l27.24-3.38A41.4,41.4,0,0,0,586,371a42,42,0,0,0,5.07-7.71,58.27,58.27,0,0,0-27.54.67A30,30,0,0,1,561.4,369.66Z"/><path class="cls-1" d="M532.55,413.3a46.24,46.24,0,0,0,17.37-13.25,33.26,33.26,0,0,0-7-2.26,31.88,31.88,0,0,0-5.75-.67l-18.53,11.42a24.53,24.53,0,0,1,9.72,2.27A23.67,23.67,0,0,1,532.55,413.3Z"/><path class="cls-1" d="M536.55,396.07a33.38,33.38,0,0,0,2.7-12.76,46.18,46.18,0,0,0-19.34,10.17,23.76,23.76,0,0,1,.5,4.8,24.48,24.48,0,0,1-2,9.78Z"/><path class="cls-1" d="M551.59,351.94a33.09,33.09,0,0,1,6.56,1.53,64.54,64.54,0,0,0,17.43-25A46.15,46.15,0,0,0,557.45,330l-19.76,23.09A34,34,0,0,1,551.59,351.94Z"/><path class="cls-1" d="M562.72,322.91a5.56,5.56,0,1,0-.73-7.84A5.56,5.56,0,0,0,562.72,322.91Z"/><path class="cls-1" d="M428,431.37a46.4,46.4,0,0,0,11.06-3.63,25.07,25.07,0,0,1,.84-4.76,24.48,24.48,0,0,1,4.66-8.83l-20.77,6.51a33.68,33.68,0,0,0-3.27,4.78,33.22,33.22,0,0,0-2.85,6.74A46.07,46.07,0,0,0,428,431.37Z"/><path class="cls-1" d="M428.82,393.41a30.54,30.54,0,0,1,3.3-5.13,31,31,0,0,1,9.72-8l-27.33-2.54a40.58,40.58,0,0,0-6.12,4,41.09,41.09,0,0,0-6.6,6.45,58.45,58.45,0,0,0,27,5.25Z"/><path class="cls-1" d="M453.5,498.92q-15.17-24.43-30.32-48.87h-16V527h16V478.37L453.5,527H469V450.05H453.5Z"/><path class="cls-1" d="M414.68,376.18l27.24,3.38A30.24,30.24,0,0,1,432,364a58.23,58.23,0,0,0-27.53-.67,41.89,41.89,0,0,0,5.06,7.71A41.41,41.41,0,0,0,414.68,376.18Z"/><path class="cls-1" d="M493.08,543.88l-.71,2.65h1C493.29,545.74,493.21,544.86,493.08,543.88Z"/><circle class="cls-1" cx="401.64" cy="375.92" r="5.03" transform="translate(-118.38 196.45) rotate(-24.07)"/><path class="cls-1" d="M495.22,526.13a.91.91,0,0,0,.8-.9.94.94,0,0,0-.23-.61.88.88,0,0,0-.57-.29.25.25,0,0,0-.12,0,.32.32,0,0,0-.13,0,.9.9,0,0,0-.79.9.94.94,0,0,0,.23.61.85.85,0,0,0,.56.29h0v22.51h.25Z"/><polygon class="cls-1" points="601.35 465.14 601.35 450.05 558.75 450.05 558.75 526.99 601.35 526.99 601.35 512.59 573.4 512.59 573.4 492.9 601.35 492.9 601.35 478.76 573.4 478.76 573.4 465.14 601.35 465.14"/><polygon class="cls-1" points="533 450.05 518.1 450.05 518.1 526.99 552.85 526.99 552.85 513.28 533 513.28 533 450.05"/><path class="cls-1" d="M577.61,432.48a33.22,33.22,0,0,0-2.85-6.74A32.34,32.34,0,0,0,571.5,421l-20.78-6.51a24.33,24.33,0,0,1,4.66,8.83,23.58,23.58,0,0,1,.84,4.76,46.16,46.16,0,0,0,21.39,4.44Z"/><path class="cls-1" d="M410,424.41a4,4,0,1,0,2.69-5A4,4,0,0,0,410,424.41Z"/><path class="cls-1" d="M457.77,352.56a34.27,34.27,0,0,1,1.45-13.87,33.8,33.8,0,0,1,2.72-6.16,64.53,64.53,0,0,0-21.36-21.75,46.29,46.29,0,0,0-1.85,18.1Z"/><path class="cls-1" d="M509.38,446.29a52.24,52.24,0,0,1,19-20.55A50.19,50.19,0,0,1,538.7,421a43.6,43.6,0,0,0-18,5.26c-6.69,3.67-15.9,16.39-18.3,19.3-1.18,1.42-3.39,4.15-6.26,4-2.51-.13-4.25-2.44-5.26-3.76-.42-.55-9.71-12.64-16-18.61a53.78,53.78,0,0,0-11.49-8.09A66,66,0,0,0,448,413a71.4,71.4,0,0,1,11.53,6.77c4.83,3.48,16.69,12.26,22.56,27.31,3,7.76,3.09,14.28,3.25,27.32a172.58,172.58,0,0,1-2.25,30.07l5.51,6.26a76.7,76.7,0,0,0-2.25,8c-.58,2.59-1,5-1.26,7.27a34.92,34.92,0,0,1,8,17.89h0c.13,1,.22,1.88.26,2.66h-1a2.81,2.81,0,0,0,2.6,2.12V526.13a.85.85,0,0,1-.56-.29.94.94,0,0,1-.23-.61.92.92,0,0,1,.79-.91h.25a1,1,0,0,1,.57.3.94.94,0,0,1,.23.61.92.92,0,0,1-.8.91v22.51a2.82,2.82,0,0,0,2.61-2.12h-1c0-.81,0-1.76.06-2.84a31,31,0,0,1,8-18.71,57.19,57.19,0,0,0-1.75-7.27,58.87,58.87,0,0,0-2.51-6.52l5.26-5.26a121.85,121.85,0,0,1-2.25-32.83C504.33,462.57,504.84,455.12,509.38,446.29Z"/><path class="cls-1" d="M475.05,398.28a23.76,23.76,0,0,1,.5-4.8,46.18,46.18,0,0,0-19.34-10.17,33.38,33.38,0,0,0,2.7,12.76l18.18,12A24.48,24.48,0,0,1,475.05,398.28Z"/><path class="cls-1" d="M453.1,393.44a4,4,0,1,0-5.5,1.22A4,4,0,0,0,453.1,393.44Z"/><path class="cls-1" d="M471.42,353.13a4.48,4.48,0,1,0-6.2-1.27A4.48,4.48,0,0,0,471.42,353.13Z"/><path class="cls-1" d="M423.44,419.47l21-5.87a24.13,24.13,0,0,1-12-8.39A46.38,46.38,0,0,0,412,413.15a33.45,33.45,0,0,0,6.07,4.1A34.19,34.19,0,0,0,423.44,419.47Z"/><path class="cls-1" d="M452.92,407.32a46.64,46.64,0,0,0,10,6,24,24,0,0,1,4.15-2.49,24.53,24.53,0,0,1,9.72-2.27l-18.53-11.42a31.88,31.88,0,0,0-5.75.67,33.46,33.46,0,0,0-7,2.26A46.31,46.31,0,0,0,452.92,407.32Z"/><path class="cls-1" d="M432.13,322.91a5.57,5.57,0,1,0-7.83-.73A5.57,5.57,0,0,0,432.13,322.91Z"/><path class="cls-1" d="M436.7,353.47a33.09,33.09,0,0,1,6.56-1.53,34,34,0,0,1,13.9,1.13L437.4,330a46.18,46.18,0,0,0-18.14-1.52,64.72,64.72,0,0,0,17.44,25Z"/><path class="cls-2" d="M674,685.48v89.24a15.8,15.8,0,0,1-15.77,15.77H339.71a15.79,15.79,0,0,1-15.77-15.77V685.9c.6.23,1.21.45,1.84.65L399.59,710l.47.15,90.69,28.79a25.53,25.53,0,0,0,15.47,0l65.62-20.83,1-.32,98.34-31.23a28.21,28.21,0,0,0,2.84-1.07m.57-8.44a7.31,7.31,0,0,0-2.29.37,19.36,19.36,0,0,1-3.55,1.52l-98.33,31.22-1,.33-65.6,20.83a17.64,17.64,0,0,1-10.63,0l-90.68-28.79-.49-.16-73.8-23.43a19.69,19.69,0,0,1-3.1-1.27h0a7.1,7.1,0,0,0-2.16-.34,7,7,0,0,0-7,7v90.4a23.77,23.77,0,0,0,23.77,23.77H658.26A23.77,23.77,0,0,0,682,774.72V684.49A7.45,7.45,0,0,0,674.6,677Z"/></g></g></svg>