<svg xmlns="http://www.w3.org/2000/svg" viewBox="0 0 391.09 649.02"><defs><style>.cls-1{fill:#121212;}.cls-2{fill:#fff;}</style></defs><g id="Layer_2" data-name="Layer 2"><g id="Layer_1-2" data-name="Layer 1"><path class="cls-1" d="M195.54,508.91a23.54,23.54,0,0,1-7.12-1.11l-165-52.38C10.58,451.34,6,439.9,7.18,430.21V31.66A25.69,25.69,0,0,1,32.83,6H359.44a25.69,25.69,0,0,1,25.65,25.66V430.44a25.31,25.31,0,0,1-2.44,10.93,22.82,22.82,0,0,1-15,14.05l-165,52.38A23.76,23.76,0,0,1,195.54,508.91Z"/><path class="cls-1" d="M359.44,12a19.65,19.65,0,0,1,19.65,19.66V430.45a19.41,19.41,0,0,1-2,8.6,16.9,16.9,0,0,1-11.28,10.66l-165,52.37a17.64,17.64,0,0,1-10.63,0l-165-52.37c-9.44-3-13.16-11.39-12.09-19.12V31.66A19.65,19.65,0,0,1,32.83,12H359.44m0-12H32.83A31.69,31.69,0,0,0,1.18,31.66V429.87a29.1,29.1,0,0,0,20.46,31.27l165,52.38a29.65,29.65,0,0,0,17.88,0l165-52.38a29.06,29.06,0,0,0,18.73-17.46,31.62,31.62,0,0,0,2.9-13.23V31.66A31.69,31.69,0,0,0,359.44,0Z"/><circle class="cls-2" cx="193.67" cy="239.27" r="8.27"/><path class="cls-2" d="M215.15,189.85a27.23,27.23,0,0,1,5.39.65A51.91,51.91,0,0,0,232.3,169a37.14,37.14,0,0,0-14.38,2.8L204.14,192A27.49,27.49,0,0,1,215.15,189.85Z"/><path class="cls-2" d="M244.93,207.19a4,4,0,1,0-5.51-1.22A4,4,0,0,0,244.93,207.19Z"/><path class="cls-2" d="M221.52,165.66a4.48,4.48,0,1,0-1.27-6.21A4.48,4.48,0,0,0,221.52,165.66Z"/><path class="cls-2" d="M234.14,165.08l19-23.67a46.32,46.32,0,0,0-1.85-18.11A64.53,64.53,0,0,0,230,145.05a33.61,33.61,0,0,1,2.72,6.17A34.23,34.23,0,0,1,234.14,165.08Z"/><path class="cls-2" d="M157.71,169a51.91,51.91,0,0,0,11.76,21.52,27.12,27.12,0,0,1,5.38-.65,27.55,27.55,0,0,1,11,2.11l-13.79-20.18a35.93,35.93,0,0,0-6.2-1.94A36.59,36.59,0,0,0,157.71,169Z"/><path class="cls-2" d="M183.89,142.29a36.93,36.93,0,0,1,10.78,10.52q-.25-16.41-.5-32.82a49.18,49.18,0,0,0-5.52-6.77,49.69,49.69,0,0,0-8.52-7A69.89,69.89,0,0,0,177.38,139,36.54,36.54,0,0,1,183.89,142.29Z"/><path class="cls-2" d="M188.78,180.65a25.94,25.94,0,0,1,2.71-4.7,51.94,51.94,0,0,0-15.19-19.26,37.2,37.2,0,0,0-2.41,7.86,36.8,36.8,0,0,0-.65,6.46l13.16,20.6A27.51,27.51,0,0,1,188.78,180.65Z"/><path class="cls-2" d="M195.53,152.81a37.05,37.05,0,0,1,10.78-10.52,36.54,36.54,0,0,1,6.51-3.26,69.54,69.54,0,0,0-2.75-32.83,50.07,50.07,0,0,0-8.52,7A49.18,49.18,0,0,0,196,120Q195.79,136.4,195.53,152.81Z"/><circle class="cls-2" cx="194.67" cy="104.45" r="6.01"/><path class="cls-2" d="M205.41,164.85a52,52,0,0,0-6.89,11.1,27.17,27.17,0,0,1,2.71,4.7,27.47,27.47,0,0,1,2.37,11q6.59-10.31,13.16-20.6a36.69,36.69,0,0,0-.64-6.46,37.16,37.16,0,0,0-2.42-7.86A52.15,52.15,0,0,0,205.41,164.85Z"/><path class="cls-2" d="M271.22,221A46.39,46.39,0,0,0,260,218a24,24,0,0,1-12,8.39l21,5.88A33.26,33.26,0,0,0,280.33,226,46.32,46.32,0,0,0,271.22,221Z"/><path class="cls-2" d="M277.4,239.92a4,4,0,1,0-2.69-5A4,4,0,0,0,277.4,239.92Z"/><circle class="cls-2" cx="290.97" cy="188.44" r="5.03" transform="translate(-55.67 192.71) rotate(-33.63)"/><path class="cls-2" d="M284.22,194.23a42.21,42.21,0,0,0-6.12-4l-27.33,2.54a30.88,30.88,0,0,1,9.72,8,30.15,30.15,0,0,1,3.29,5.12,58.12,58.12,0,0,0,27-5.25A42,42,0,0,0,284.22,194.23Z"/><path class="cls-2" d="M258.47,182.18a31,31,0,0,1-7.78,9.91l27.24-3.38a41.52,41.52,0,0,0,10.19-12.91,58.23,58.23,0,0,0-27.53.67A30.18,30.18,0,0,1,258.47,182.18Z"/><path class="cls-2" d="M229.61,225.82A46.11,46.11,0,0,0,247,212.57a33.26,33.26,0,0,0-12.71-2.93l-18.54,11.43a24.4,24.4,0,0,1,9.73,2.27A23.55,23.55,0,0,1,229.61,225.82Z"/><path class="cls-2" d="M233.61,208.6a34,34,0,0,0,1.82-5.5,32.84,32.84,0,0,0,.88-7.26A46.2,46.2,0,0,0,217,206a24,24,0,0,1-1.55,14.59Z"/><path class="cls-2" d="M248.65,164.46a34.37,34.37,0,0,1,6.56,1.53,64.31,64.31,0,0,0,17.44-25,45.92,45.92,0,0,0-10.22,0,46.61,46.61,0,0,0-7.92,1.56l-19.75,23.08A34.3,34.3,0,0,1,248.65,164.46Z"/><path class="cls-2" d="M259.78,135.43a5.56,5.56,0,1,0-.73-7.83A5.56,5.56,0,0,0,259.78,135.43Z"/><path class="cls-2" d="M125.08,243.89a46.3,46.3,0,0,0,11.06-3.62,23.46,23.46,0,0,1,.84-4.76,24.47,24.47,0,0,1,4.66-8.84l-20.78,6.52A31.81,31.81,0,0,0,117.6,238a33,33,0,0,0-2.85,6.74A46.23,46.23,0,0,0,125.08,243.89Z"/><path class="cls-2" d="M125.89,205.93a30.15,30.15,0,0,1,3.29-5.12,30.88,30.88,0,0,1,9.72-8l-27.33-2.54a41.7,41.7,0,0,0-12.72,10.42,58.12,58.12,0,0,0,27,5.25Z"/><path class="cls-2" d="M150.56,311.44Q135.41,287,120.24,262.58h-16v76.93h16V290.89l30.32,48.62H166.1V262.58H150.56Z"/><path class="cls-2" d="M111.74,188.71,139,192.09a30.3,30.3,0,0,1-9.9-15.62,58.23,58.23,0,0,0-27.53-.67,41.52,41.52,0,0,0,10.19,12.91Z"/><path class="cls-2" d="M190.14,356.4l-.71,2.66h1C190.36,358.27,190.27,357.38,190.14,356.4Z"/><circle class="cls-2" cx="98.7" cy="188.44" r="5.03" transform="translate(-68.26 56.63) rotate(-24.07)"/><path class="cls-2" d="M192.29,338.66a.91.91,0,0,0,0-1.81H192a.91.91,0,0,0-.57,1.51.94.94,0,0,0,.57.3h0v22.51h.25Z"/><polygon class="cls-2" points="298.42 277.67 298.42 262.58 255.81 262.58 255.81 339.51 298.42 339.51 298.42 325.12 270.46 325.12 270.46 305.43 298.42 305.43 298.42 291.28 270.46 291.28 270.46 277.67 298.42 277.67"/><polygon class="cls-2" points="230.06 262.58 215.16 262.58 215.16 339.51 249.91 339.51 249.91 325.81 230.06 325.81 230.06 262.58"/><path class="cls-2" d="M274.68,245a33,33,0,0,0-6.12-11.53L247.79,227a24.63,24.63,0,0,1,4.66,8.84,24.22,24.22,0,0,1,.84,4.75,45.52,45.52,0,0,0,11.06,3.63A46.15,46.15,0,0,0,274.68,245Z"/><path class="cls-2" d="M107.06,236.93a4,4,0,1,0,2.69-5A4,4,0,0,0,107.06,236.93Z"/><path class="cls-2" d="M154.83,165.08a34.26,34.26,0,0,1,1.46-13.86,33.63,33.63,0,0,1,2.71-6.17,65.17,65.17,0,0,0-10-12.79,64.22,64.22,0,0,0-11.36-9,46.32,46.32,0,0,0-1.85,18.11Z"/><path class="cls-2" d="M206.44,258.82a52.25,52.25,0,0,1,19.05-20.55,50.32,50.32,0,0,1,10.27-4.77,43.69,43.69,0,0,0-18,5.27c-6.68,3.67-15.9,16.39-18.29,19.29-1.19,1.43-3.4,4.16-6.27,4-2.5-.12-4.24-2.43-5.26-3.76-.42-.55-9.7-12.63-16-18.6a53.64,53.64,0,0,0-11.49-8.1,65.54,65.54,0,0,0-15.32-6.12,71.21,71.21,0,0,1,11.53,6.76c4.82,3.48,16.69,12.27,22.55,27.32,3,7.75,3.1,14.27,3.26,27.31A173.24,173.24,0,0,1,180.13,317l5.51,6.27a76.7,76.7,0,0,0-2.25,8,73.1,73.1,0,0,0-1.25,7.27,34.63,34.63,0,0,1,5,7.76,35.25,35.25,0,0,1,3,10.13h0c.14,1,.22,1.87.27,2.66h-1a2.81,2.81,0,0,0,2.61,2.11V338.66a.94.94,0,0,1-.57-.3.92.92,0,0,1-.23-.61.91.91,0,0,1,.8-.9h.25a.91.91,0,0,1,0,1.81v22.51a2.8,2.8,0,0,0,2.6-2.11h-1c0-.81,0-1.77.07-2.85a30.88,30.88,0,0,1,1.69-8.18,31.32,31.32,0,0,1,6.26-10.53,55.23,55.23,0,0,0-4.26-13.78l5.27-5.26a122,122,0,0,1-2.26-32.83C201.4,275.1,201.91,267.65,206.44,258.82Z"/><path class="cls-2" d="M172.11,210.81a24.61,24.61,0,0,1,.5-4.81,46.36,46.36,0,0,0-19.33-10.16A33,33,0,0,0,156,208.6l18.17,12A24.65,24.65,0,0,1,172.11,210.81Z"/><path class="cls-2" d="M150.17,206a4,4,0,1,0-5.51,1.22A4,4,0,0,0,150.17,206Z"/><path class="cls-2" d="M168.48,165.66a4.48,4.48,0,1,0-6.2-1.27A4.48,4.48,0,0,0,168.48,165.66Z"/><path class="cls-2" d="M120.51,232l21-5.88a24.47,24.47,0,0,1-8.72-4.86,23.33,23.33,0,0,1-3.3-3.53,46.92,46.92,0,0,0-11.25,3,46.21,46.21,0,0,0-9.1,5,33.11,33.11,0,0,0,6.07,4.09A32.63,32.63,0,0,0,120.51,232Z"/><path class="cls-2" d="M150,219.85a46.3,46.3,0,0,0,10,6,23.55,23.55,0,0,1,4.14-2.48,24.4,24.4,0,0,1,9.73-2.27l-18.54-11.43a33.16,33.16,0,0,0-12.71,2.93A46.44,46.44,0,0,0,150,219.85Z"/><path class="cls-2" d="M129.2,135.43a5.56,5.56,0,1,0-7.84-.73A5.56,5.56,0,0,0,129.2,135.43Z"/><path class="cls-2" d="M133.76,166a33.54,33.54,0,0,1,20.46-.4q-9.89-11.53-19.75-23.08a46.74,46.74,0,0,0-7.93-1.56,45.82,45.82,0,0,0-10.21,0,64.42,64.42,0,0,0,17.43,25Z"/><path class="cls-1" d="M35.77,643A29.81,29.81,0,0,1,6,613.24V522.85a13,13,0,0,1,13-13,13.25,13.25,0,0,1,4,.63l.4.13.53.26a14.25,14.25,0,0,0,2.17.89l165,52.37a11.46,11.46,0,0,0,3.49.54,11.65,11.65,0,0,0,3.52-.54l165-52.37a13.34,13.34,0,0,0,2.41-1l.53-.3.58-.19A13.43,13.43,0,0,1,384.09,523v90.22A29.81,29.81,0,0,1,354.32,643Z"/><path class="cls-1" d="M370.66,515.57a7.45,7.45,0,0,1,7.43,7.45v90.22A23.78,23.78,0,0,1,354.32,637H35.77A23.78,23.78,0,0,1,12,613.24V522.85a7,7,0,0,1,7-7,6.81,6.81,0,0,1,2.15.35h0a20.71,20.71,0,0,0,3.1,1.28l73.8,23.43.48.15,90.68,28.79a17.64,17.64,0,0,0,10.63,0L265.46,549l1-.33,98.33-31.22a19.08,19.08,0,0,0,3.55-1.53,7.7,7.7,0,0,1,2.29-.36m0-12a19.49,19.49,0,0,0-6,.94l-1.16.37-1.06.6a6.7,6.7,0,0,1-1.3.54l-98.32,31.22-1.06.34L196.23,558.4a5.62,5.62,0,0,1-1.69.25,5.31,5.31,0,0,1-1.68-.26L102.18,529.6l-.49-.15L27.9,506a7.73,7.73,0,0,1-1.22-.5l-.15-.08-.16-.07-.75-.36-.8-.26A19,19,0,0,0,0,522.85v90.39A35.82,35.82,0,0,0,35.77,649H354.32a35.82,35.82,0,0,0,35.77-35.78V523a19.46,19.46,0,0,0-19.43-19.45Z"/></g></g></svg>