<svg xmlns="http://www.w3.org/2000/svg" viewBox="0 0 454.46 609.4"><defs><style>.cls-1{fill:#fff;}</style></defs><g id="Layer_2" data-name="Layer 2"><g id="Layer_1-2" data-name="Layer 1"><path class="cls-1" d="M223.55,404.39a1.14,1.14,0,0,0-.29-.76,1.13,1.13,0,0,1-.7,1.88v27.94h0V405.51A1.13,1.13,0,0,0,223.55,404.39Z"/><path class="cls-1" d="M220.23,430.83c-.06-1-.16-2.08-.33-3.3h0c.16,1.21.27,2.31.33,3.29h0Z"/><path class="cls-1" d="M221.55,405.14a1.1,1.1,0,0,0,.7.37h0A1.15,1.15,0,0,1,221.55,405.14Z"/><path class="cls-1" d="M430.06,0H24.62A24.39,24.39,0,0,0,.22,24.4V519.63c-1.32,9.6,3.29,20,15,23.73l204.78,65a21.86,21.86,0,0,0,13.2,0l204.78-65a20.93,20.93,0,0,0,14-13.23,24.06,24.06,0,0,0,2.47-10.68V24.4A24.39,24.39,0,0,0,430.06,0ZM351.27,218.36a6.24,6.24,0,1,1-6.88-5.53A6.25,6.25,0,0,1,351.27,218.36Zm-26.39,58.42a5,5,0,1,1,3.34,6.16A5,5,0,0,1,324.88,276.78Zm-.56-6.07a41.39,41.39,0,0,1-6.63,2.76l-26-7.29a30.27,30.27,0,0,0,10.83-6,29.45,29.45,0,0,0,4.1-4.38,57.52,57.52,0,0,1,14,3.72,56.4,56.4,0,0,1,11.3,6.15A40.92,40.92,0,0,1,324.32,270.71Zm5.15-31.41a72.48,72.48,0,0,1-18.15,1.44,37.65,37.65,0,0,0-16.16-16.29l33.93-3.16a52.34,52.34,0,0,1,7.6,4.93,51.79,51.79,0,0,1,8.19,8A72.69,72.69,0,0,1,329.47,239.3Zm12.06-36a52.12,52.12,0,0,1-6.29,9.58,51.17,51.17,0,0,1-6.36,6.44l-33.82,4.2a38.37,38.37,0,0,0,9.66-12.3,37.37,37.37,0,0,0,2.63-7.09,72.36,72.36,0,0,1,34.18-.83ZM305.44,143.5a6.91,6.91,0,1,1,.91,9.73A6.91,6.91,0,0,1,305.44,143.5Zm4.2,16.58a57.68,57.68,0,0,1,12.68,0,80,80,0,0,1-21.64,31,40.68,40.68,0,0,0-8.15-1.9,42.3,42.3,0,0,0-17.25,1.4Q287.55,176.35,299.8,162A57.52,57.52,0,0,1,309.64,160.08Zm-56.43,80.75a57.43,57.43,0,0,1,24-12.62,41.14,41.14,0,0,1-3.36,15.85L251.3,258.93a30.34,30.34,0,0,0,2.53-12.13A29.37,29.37,0,0,0,253.21,240.83Zm21.48,4.52A41,41,0,0,1,290.46,249a57.12,57.12,0,0,1-21.56,16.44,30,30,0,0,0-5.15-3.08,30.39,30.39,0,0,0-12.07-2.82Zm7.9-11.4a5,5,0,1,1-1.52,6.84A4.95,4.95,0,0,1,282.59,234Zm-.82-84.66a79.85,79.85,0,0,1,14.09-11.12,57.77,57.77,0,0,1,2.3,22.48L274.52,190a42.22,42.22,0,0,0-1.81-17.2,41,41,0,0,0-3.37-7.66A80.11,80.11,0,0,1,281.77,149.29ZM257.28,183a5.56,5.56,0,1,1,1.57,7.71A5.56,5.56,0,0,1,257.28,183Zm4.8,12.9a45.61,45.61,0,0,1,10.15-1.07A64.73,64.73,0,0,1,267,208.31a63.91,63.91,0,0,1-9.32,13.27,33.22,33.22,0,0,0-6.68-.8,34.13,34.13,0,0,0-13.68,2.62l17.12-25.06A46.56,46.56,0,0,1,262.08,195.94Zm-9.94-6.57a46.25,46.25,0,0,1,.81,8L236.61,223a33.66,33.66,0,0,0-6.31-19.44,64.71,64.71,0,0,1,8.55-13.78,63.79,63.79,0,0,1,10.3-10.12A46.26,46.26,0,0,1,252.14,189.37Zm-17.6,92.76a10.27,10.27,0,1,1-10.27-10.27A10.27,10.27,0,0,1,234.54,282.13Zm10.09-165.19a86.48,86.48,0,0,1,3.43,40.75,44.81,44.81,0,0,0-8.09,4.05,45.89,45.89,0,0,0-13.38,13.06q.32-20.37.62-40.75a62.23,62.23,0,0,1,17.42-17.11Zm-19.11-9.64a7.47,7.47,0,1,1-7.47,7.46A7.47,7.47,0,0,1,225.52,107.3Zm-22.09,28.62a86.4,86.4,0,0,1,4-19,62.23,62.23,0,0,1,17.42,17.11q.3,20.38.62,40.75a45.89,45.89,0,0,0-13.38-13.06,44.81,44.81,0,0,0-8.09-4.05A86.89,86.89,0,0,1,203.43,135.92Zm-3.71,53.45a45.64,45.64,0,0,1,3-9.75,64.32,64.32,0,0,1,18.85,23.9,33.14,33.14,0,0,0-3.37,5.84,34.07,34.07,0,0,0-2.94,13.6l-16.34-25.57A46.15,46.15,0,0,1,199.72,189.37Zm14.87,34a34.07,34.07,0,0,0-13.67-2.62,33.13,33.13,0,0,0-6.68.8,64.26,64.26,0,0,1-14.6-26.71,45.58,45.58,0,0,1,10.14,1.07,46.39,46.39,0,0,1,7.7,2.4Q206,210.88,214.59,223.4Zm-45.06,22.78a41.26,41.26,0,0,1,7.13-.83l23,14.18a30.39,30.39,0,0,0-12.07,2.82,30,30,0,0,0-5.15,3.08A57.27,57.27,0,0,1,160.88,249,41.44,41.44,0,0,1,169.53,246.18Zm-7.6-10.72a5,5,0,1,1,1.51,6.84A4.95,4.95,0,0,1,161.93,235.46Zm15.56,8.6a41.14,41.14,0,0,1-3.36-15.85,57.43,57.43,0,0,1,24,12.62,29.37,29.37,0,0,0-.62,6,30.34,30.34,0,0,0,2.53,12.13Zm9.39-62.59a5.56,5.56,0,1,1-1.57,7.7A5.57,5.57,0,0,1,186.88,181.47Zm-34.54-30.85a57.46,57.46,0,0,1,2.39-12.45,80.09,80.09,0,0,1,26.52,27,41.68,41.68,0,0,0-3.38,7.66,42.36,42.36,0,0,0-1.8,17.2l-23.64-29.38A58.82,58.82,0,0,1,152.34,150.62Zm-16.92-8a6.91,6.91,0,1,1-.91,9.73A6.91,6.91,0,0,1,135.42,142.59ZM141,160.08a57.19,57.19,0,0,1,9.83,1.93l24.53,28.66a42.3,42.3,0,0,0-17.25-1.4,40.68,40.68,0,0,0-8.15,1.9,80,80,0,0,1-21.64-31A57.68,57.68,0,0,1,141,160.08Zm-20.84,113a5,5,0,1,1-3.34,6.16A4.95,4.95,0,0,1,120.11,273.07Zm-.82-7.81a57.5,57.5,0,0,1,25.27-9.87,29.34,29.34,0,0,0,4.09,4.38,30.43,30.43,0,0,0,10.83,6l-26,7.29a41.08,41.08,0,0,1-14.17-7.84Zm10.56,15.25a41,41,0,0,1,4-5.93l25.79-8.09a30.42,30.42,0,0,0-5.78,11,29.61,29.61,0,0,0-1,5.91,57.49,57.49,0,0,1-26.56,5.51A41.35,41.35,0,0,1,129.85,280.51Zm-3.79-78.82a72.7,72.7,0,0,1,18,2.48,37.56,37.56,0,0,0,12.29,19.39l-33.82-4.2a51.17,51.17,0,0,1-6.36-6.44,52.12,52.12,0,0,1-6.29-9.58A73.29,73.29,0,0,1,126.06,201.69Zm-20.34,23.55a6.24,6.24,0,1,1,6.88-5.53A6.23,6.23,0,0,1,105.72,225.24Zm9,1a51.76,51.76,0,0,1,7.59-4.93l33.93,3.16a38.07,38.07,0,0,0-12.06,9.94,36.82,36.82,0,0,0-4.09,6.35,72.31,72.31,0,0,1-33.57-6.51A51.91,51.91,0,0,1,114.77,226.22Zm75.28,180.35H170.77q-18.83-30.18-37.64-60.36v60.36H113.22V311.06h19.91q18.81,30.33,37.64,60.66V311.06h19.28Zm45.73-26.14L229.25,387a71.36,71.36,0,0,1,3.11,8.09,69.33,69.33,0,0,1,2.18,9,38.6,38.6,0,0,0-9.88,23.23c-.09,1.34-.1,2.53-.08,3.53h1.21a3.46,3.46,0,0,1-3.23,2.62h-.31V405.51h0v27.94a3.47,3.47,0,0,1-3.23-2.62h0l.88-3.29h0A43.23,43.23,0,0,0,210,405.32c.34-2.78.84-5.81,1.56-9a94.32,94.32,0,0,1,2.8-10l-6.85-7.78a215.1,215.1,0,0,0,2.8-37.33c-.2-16.18-.29-24.28-4-33.9-7.28-18.69-22-29.59-28-33.91a88.37,88.37,0,0,0-14.31-8.4,81.57,81.57,0,0,1,19,7.6,67,67,0,0,1,14.27,10.05c7.86,7.42,19.39,22.42,19.91,23.1,1.26,1.64,3.42,4.51,6.53,4.67,3.56.18,6.31-3.21,7.78-5,3-3.6,14.41-19.4,22.71-24A54.32,54.32,0,0,1,276.53,275a62.92,62.92,0,0,0-12.75,5.91,64.8,64.8,0,0,0-23.64,25.51c-5.64,11-6.27,20.21-7.16,33.29A151.58,151.58,0,0,0,235.78,380.43Zm58.32,26.14H251V311.06h18.49v78.5H294.1Zm3.14-128.74a30.42,30.42,0,0,0-5.78-11L317.25,275a40.73,40.73,0,0,1,4.05,5.93,41.24,41.24,0,0,1,3.54,8.37,57.48,57.48,0,0,1-26.55-5.51A29.69,29.69,0,0,0,297.24,277.83Zm57.07,52h-34.7v16.9h34.7v17.56h-34.7V388.7h34.7v17.87H301.42V311.06h52.89Z"/><path class="cls-1" d="M222.25,403.26h.31a1.15,1.15,0,0,1,.7.37,1.15,1.15,0,0,0-.7-.37.39.39,0,0,0-.15,0,.41.41,0,0,0-.16,0,1.14,1.14,0,0,0-1,1.13,1.11,1.11,0,0,0,.29.75,1.16,1.16,0,0,1-.28-.75A1.14,1.14,0,0,1,222.25,403.26Z"/></g></g></svg>