<svg xmlns="http://www.w3.org/2000/svg" viewBox="0 0 454.46 718.78"><defs><style>.cls-1{fill:#fff;}.cls-2{fill:#121212;}</style></defs><g id="Layer_2" data-name="Layer 2"><g id="Layer_1-2" data-name="Layer 1"><path class="cls-1" d="M454.46,24.4V519.45A24.06,24.06,0,0,1,452,530.13a20.93,20.93,0,0,1-14,13.23l-204.78,65a21.86,21.86,0,0,1-13.2,0l-204.78-65C3.51,539.64-1.1,529.23.22,519.63V24.4A24.39,24.39,0,0,1,24.62,0H430.06A24.39,24.39,0,0,1,454.46,24.4Z"/><circle class="cls-2" cx="224.28" cy="282.13" r="10.27"/><path class="cls-2" d="M251,220.78a33.13,33.13,0,0,1,6.68.8,64.57,64.57,0,0,0,14.6-26.71,45.47,45.47,0,0,0-10.14,1.07,46.39,46.39,0,0,0-7.7,2.4L237.28,223.4A34,34,0,0,1,251,220.78Z"/><path class="cls-2" d="M287.91,242.3a5,5,0,1,0-6.83-1.51A4.95,4.95,0,0,0,287.91,242.3Z"/><path class="cls-2" d="M258.85,190.75a5.56,5.56,0,1,0-1.57-7.71A5.57,5.57,0,0,0,258.85,190.75Z"/><path class="cls-2" d="M274.52,190l23.64-29.38a58.82,58.82,0,0,0,.09-10,57.46,57.46,0,0,0-2.39-12.45,80.09,80.09,0,0,0-26.52,27,41,41,0,0,1,3.37,7.66A42.22,42.22,0,0,1,274.52,190Z"/><path class="cls-2" d="M179.64,194.87a64.26,64.26,0,0,0,14.6,26.71,33.13,33.13,0,0,1,6.68-.8,34.07,34.07,0,0,1,13.67,2.62q-8.55-12.53-17.11-25.06a46.39,46.39,0,0,0-7.7-2.4A45.47,45.47,0,0,0,179.64,194.87Z"/><path class="cls-2" d="M212.14,161.74a45.77,45.77,0,0,1,13.38,13.06q-.32-20.37-.62-40.75a62.23,62.23,0,0,0-17.42-17.11,86.31,86.31,0,0,0-3.42,40.75A45.07,45.07,0,0,1,212.14,161.74Z"/><path class="cls-2" d="M218.21,209.36a33.15,33.15,0,0,1,3.36-5.84,64.32,64.32,0,0,0-18.85-23.9,45.94,45.94,0,0,0-3.8,17.77L215.26,223A33.94,33.94,0,0,1,218.21,209.36Z"/><path class="cls-2" d="M226.59,174.8A45.89,45.89,0,0,1,240,161.74a44.81,44.81,0,0,1,8.09-4.05,86.66,86.66,0,0,0-3.42-40.75,62.1,62.1,0,0,0-17.43,17.11Q226.91,154.43,226.59,174.8Z"/><circle class="cls-2" cx="225.52" cy="114.76" r="7.47"/><path class="cls-2" d="M238.85,189.74a64.71,64.71,0,0,0-8.55,13.78A33.66,33.66,0,0,1,236.61,223L253,197.39a46.15,46.15,0,0,0-.8-8,46.81,46.81,0,0,0-3-9.75A64.2,64.2,0,0,0,238.85,189.74Z"/><path class="cls-2" d="M320.55,259.48a57.41,57.41,0,0,0-14-3.72,29.45,29.45,0,0,1-4.1,4.38,30.27,30.27,0,0,1-10.83,6l26,7.29a41.39,41.39,0,0,0,6.63-2.76,40.92,40.92,0,0,0,7.53-5.08A56.4,56.4,0,0,0,320.55,259.48Z"/><path class="cls-2" d="M328.22,282.94a5,5,0,1,0-3.33-6.16A5,5,0,0,0,328.22,282.94Z"/><circle class="cls-2" cx="345.06" cy="219.03" r="6.24" transform="translate(-63.55 227.8) rotate(-33.63)"/><path class="cls-2" d="M336.69,226.22a52.34,52.34,0,0,0-7.6-4.93l-33.93,3.16a38.09,38.09,0,0,1,12.07,9.94,37.43,37.43,0,0,1,4.09,6.35,72.3,72.3,0,0,0,33.56-6.51A51.79,51.79,0,0,0,336.69,226.22Z"/><path class="cls-2" d="M304.72,211.26a38.37,38.37,0,0,1-9.65,12.3l33.81-4.2a51.84,51.84,0,0,0,12.65-16,72.36,72.36,0,0,0-34.18.83A37.37,37.37,0,0,1,304.72,211.26Z"/><path class="cls-2" d="M268.9,265.43A57.27,57.27,0,0,0,290.47,249a41.12,41.12,0,0,0-15.78-3.64l-23,14.18a30.39,30.39,0,0,1,12.07,2.82A30,30,0,0,1,268.9,265.43Z"/><path class="cls-2" d="M273.86,244.06a41.14,41.14,0,0,0,3.36-15.85,57.43,57.43,0,0,0-24,12.62,29.37,29.37,0,0,1,.62,6,30.34,30.34,0,0,1-2.53,12.13Z"/><path class="cls-2" d="M292.53,189.27a40.68,40.68,0,0,1,8.15,1.9,80,80,0,0,0,21.64-31A57.7,57.7,0,0,0,299.81,162l-24.53,28.66A42.3,42.3,0,0,1,292.53,189.27Z"/><path class="cls-2" d="M306.35,153.23a6.91,6.91,0,1,0-.91-9.73A6.91,6.91,0,0,0,306.35,153.23Z"/><path class="cls-2" d="M139.13,287.87a57.69,57.69,0,0,0,13.73-4.5,29.71,29.71,0,0,1,6.83-16.88l-25.79,8.09a40.19,40.19,0,0,0-4.05,5.93,40.68,40.68,0,0,0-3.54,8.37A57.27,57.27,0,0,0,139.13,287.87Z"/><path class="cls-2" d="M140.14,240.74a37.43,37.43,0,0,1,4.09-6.35,38.18,38.18,0,0,1,12.06-9.94l-33.92-3.16a51.68,51.68,0,0,0-15.79,12.94,72.23,72.23,0,0,0,33.56,6.51Z"/><path class="cls-2" d="M170.77,371.72q-18.83-30.33-37.64-60.66H113.22v95.51h19.91V346.21q18.81,30.18,37.64,60.36h19.29V311.06H170.77Z"/><path class="cls-2" d="M122.58,219.36l33.81,4.2a38.23,38.23,0,0,1-9.65-12.3,37.46,37.46,0,0,1-2.64-7.09,72.32,72.32,0,0,0-34.17-.83,51.45,51.45,0,0,0,12.65,16Z"/><path class="cls-2" d="M219.9,427.54l-.88,3.29h1.21C220.17,429.85,220.07,428.75,219.9,427.54Z"/><circle class="cls-2" cx="106.39" cy="219.03" r="6.24" transform="translate(-80.07 62.42) rotate(-24.07)"/><path class="cls-2" d="M222.56,405.51a1.13,1.13,0,0,0,.7-1.88,1.12,1.12,0,0,0-.7-.37h-.31a1.14,1.14,0,0,0-1,1.13,1.16,1.16,0,0,0,.28.75,1.17,1.17,0,0,0,.7.37h0v27.95h.31Z"/><polygon class="cls-2" points="354.31 329.8 354.31 311.06 301.43 311.06 301.43 406.57 354.31 406.57 354.31 388.7 319.61 388.7 319.61 364.26 354.31 364.26 354.31 346.7 319.61 346.7 319.61 329.8 354.31 329.8"/><polygon class="cls-2" points="269.45 311.06 250.96 311.06 250.96 406.57 294.1 406.57 294.1 389.56 269.45 389.56 269.45 311.06"/><path class="cls-2" d="M324.84,289.25a40.93,40.93,0,0,0-7.59-14.3l-25.79-8.09a30.42,30.42,0,0,1,5.78,11,29.69,29.69,0,0,1,1.05,5.91,57.48,57.48,0,0,0,26.55,5.51Z"/><path class="cls-2" d="M116.77,279.23a5,5,0,1,0,3.34-6.16A5,5,0,0,0,116.77,279.23Z"/><path class="cls-2" d="M176.07,190a42.22,42.22,0,0,1,1.81-17.2,41,41,0,0,1,3.37-7.66,80.09,80.09,0,0,0-26.52-27,57.77,57.77,0,0,0-2.3,22.48Z"/><path class="cls-2" d="M240.14,306.39a64.88,64.88,0,0,1,23.64-25.51A63,63,0,0,1,276.54,275a54.31,54.31,0,0,0-22.4,6.53c-8.3,4.56-19.74,20.36-22.71,24-1.47,1.77-4.22,5.16-7.78,5-3.11-.16-5.27-3-6.53-4.67-.52-.68-12.05-15.68-19.91-23.1a67,67,0,0,0-14.27-10.05,81.4,81.4,0,0,0-19-7.6,88.37,88.37,0,0,1,14.31,8.4c6,4.32,20.72,15.22,28,33.91,3.75,9.62,3.85,17.72,4,33.9a214.11,214.11,0,0,1-2.8,37.33l6.85,7.78a94.32,94.32,0,0,0-2.8,10c-.72,3.21-1.22,6.24-1.56,9a43.23,43.23,0,0,1,9.94,22.21h0c.17,1.22.27,2.32.33,3.3H219a3.47,3.47,0,0,0,3.23,2.62V405.51a1.12,1.12,0,0,1-.7-.37,1.16,1.16,0,0,1-.28-.75,1.14,1.14,0,0,1,1-1.13.41.41,0,0,1,.16,0,.39.39,0,0,1,.15,0,1.12,1.12,0,0,1,.7.37,1.14,1.14,0,0,1,.29.76,1.13,1.13,0,0,1-1,1.12v27.94a3.46,3.46,0,0,0,3.23-2.62h-1.21c0-1,0-2.19.08-3.53a38.6,38.6,0,0,1,9.88-23.23,69.33,69.33,0,0,0-2.18-9,71.36,71.36,0,0,0-3.11-8.09l6.53-6.53a152,152,0,0,1-2.8-40.75C233.87,326.6,234.5,317.36,240.14,306.39Z"/><path class="cls-2" d="M197.52,246.8a29.37,29.37,0,0,1,.62-6,57.48,57.48,0,0,0-24-12.62,41,41,0,0,0,1.09,9,41.67,41.67,0,0,0,2.26,6.83l22.56,14.87A30.34,30.34,0,0,1,197.52,246.8Z"/><path class="cls-2" d="M170.28,240.79a5,5,0,1,0-6.84,1.51A5,5,0,0,0,170.28,240.79Z"/><path class="cls-2" d="M193,190.75a5.56,5.56,0,1,0-7.71-1.58A5.57,5.57,0,0,0,193,190.75Z"/><path class="cls-2" d="M133.46,273.1l26-7.29a30.43,30.43,0,0,1-10.83-6,29.34,29.34,0,0,1-4.09-4.38,57.63,57.63,0,0,0-25.27,9.87,41.08,41.08,0,0,0,14.17,7.84Z"/><path class="cls-2" d="M170.05,258a57.61,57.61,0,0,0,12.4,7.41,30,30,0,0,1,5.15-3.08,30.39,30.39,0,0,1,12.07-2.82l-23-14.18A41,41,0,0,0,160.89,249,57.29,57.29,0,0,0,170.05,258Z"/><path class="cls-2" d="M144.24,153.23a6.91,6.91,0,1,0-9.72-.91A6.9,6.9,0,0,0,144.24,153.23Z"/><path class="cls-2" d="M149.91,191.17a40.68,40.68,0,0,1,8.15-1.9,42.3,42.3,0,0,1,17.25,1.4Q163,176.35,150.79,162a57.78,57.78,0,0,0-22.52-1.89,80,80,0,0,0,21.64,31Z"/><path class="cls-2" d="M454.46,577.27v112A29.51,29.51,0,0,1,425,718.78H29.51A29.51,29.51,0,0,1,0,689.27V577.05a8.7,8.7,0,0,1,11.36-8.28h0a24.79,24.79,0,0,0,3.85,1.58l91.61,29.09.6.19L220,635.38a21.86,21.86,0,0,0,13.2,0l81.43-25.85,1.28-.41L438,570.36a23.42,23.42,0,0,0,4.4-1.89h0A9.24,9.24,0,0,1,454.46,577.27Z"/></g></g></svg>