<svg xmlns="http://www.w3.org/2000/svg" viewBox="0 0 303.38 489.58"><defs><style>.cls-1{fill:#fff;}.cls-2{fill:none;stroke:#fff;stroke-miterlimit:10;stroke-width:6px;}</style></defs><g id="Layer_2" data-name="Layer 2"><g id="Layer_1-2" data-name="Layer 1"><path class="cls-1" d="M149.28,264.61a.71.71,0,0,0-.19-.49.71.71,0,0,1,.19.49.75.75,0,0,1-.65.74v18.28h0V265.35A.75.75,0,0,0,149.28,264.61Z"/><path class="cls-1" d="M148.43,263.88h.21a.69.69,0,0,1,.45.24.69.69,0,0,0-.46-.24h-.2a.73.73,0,0,0-.64.73.8.8,0,0,0,.18.5.78.78,0,0,1-.18-.5A.73.73,0,0,1,148.43,263.88Z"/><path class="cls-1" d="M147.11,281.92c0-.64-.11-1.37-.21-2.16h0c.11.8.18,1.52.22,2.15h0Z"/><path class="cls-1" d="M284.41,0H19.11a16,16,0,0,0-16,16V340A13.86,13.86,0,0,0,13,355.55L147,398.1a14.31,14.31,0,0,0,8.64,0l134-42.55a13.66,13.66,0,0,0,9.16-8.66,15.71,15.71,0,0,0,1.62-7V16A16,16,0,0,0,284.41,0ZM232.85,142.89a4.08,4.08,0,1,1-4.5-3.62A4.08,4.08,0,0,1,232.85,142.89Zm-17.26,38.22a3.24,3.24,0,1,1,2.18,4A3.24,3.24,0,0,1,215.59,181.11Zm-.37-4a27,27,0,0,1-4.34,1.81l-17-4.77a19.45,19.45,0,0,0,9.77-6.82,37.58,37.58,0,0,1,16.53,6.45A26.7,26.7,0,0,1,215.22,177.14Zm3.37-20.55a47.36,47.36,0,0,1-11.88.94,24.27,24.27,0,0,0-2.67-4.16,25,25,0,0,0-7.9-6.5l22.2-2.07a35,35,0,0,1,5,3.23,33.54,33.54,0,0,1,5.36,5.24A47.5,47.5,0,0,1,218.59,156.59Zm7.89-23.53a33.7,33.7,0,0,1-4.11,6.27,33.26,33.26,0,0,1-4.17,4.21l-22.12,2.74a24.52,24.52,0,0,0,8-12.68,47.37,47.37,0,0,1,22.36-.54ZM202.87,93.9a4.52,4.52,0,1,1,.59,6.37A4.51,4.51,0,0,1,202.87,93.9Zm2.75,10.85a37.16,37.16,0,0,1,8.29,0,52.43,52.43,0,0,1-14.16,20.31,26.9,26.9,0,0,0-5.33-1.24,27.89,27.89,0,0,0-11.29.91L199.18,106A37.1,37.1,0,0,1,205.62,104.75Zm-36.93,52.84a37.53,37.53,0,0,1,15.71-8.26,27.49,27.49,0,0,1-.72,5.91,27,27,0,0,1-1.48,4.46l-14.76,9.73a19.46,19.46,0,0,0,1.25-11.84Zm14.05,3a26.06,26.06,0,0,1,4.67.54,26.86,26.86,0,0,1,5.66,1.84A37.5,37.5,0,0,1,179,173.69a19.46,19.46,0,0,0-3.37-2,19.89,19.89,0,0,0-7.9-1.84Zm5.17-7.46a3.24,3.24,0,1,1-1,4.47A3.25,3.25,0,0,1,187.91,153.09Zm-.53-55.4a51.86,51.86,0,0,1,9.22-7.28,37.53,37.53,0,0,1,1.5,14.71l-15.47,19.23a27.47,27.47,0,0,0-1.18-11.26,27,27,0,0,0-2.2-5A52.06,52.06,0,0,1,187.38,97.69Zm-16,22.09a3.64,3.64,0,1,1,1,5A3.63,3.63,0,0,1,171.35,119.78Zm3.15,8.43a30.16,30.16,0,0,1,6.64-.7A42.37,42.37,0,0,1,171.58,145a21.58,21.58,0,0,0-4.37-.53,22.27,22.27,0,0,0-9,1.71q5.61-8.19,11.2-16.39A29.56,29.56,0,0,1,174.5,128.21Zm-6.51-4.3a29.77,29.77,0,0,1,.53,5.26L157.83,145.9A22.54,22.54,0,0,0,155.9,137a22.06,22.06,0,0,0-2.2-3.81,42.15,42.15,0,0,1,5.59-9,42.59,42.59,0,0,1,6.74-6.63A29.55,29.55,0,0,1,168,123.91Zm-11.52,60.7a6.72,6.72,0,1,1-6.71-6.71A6.71,6.71,0,0,1,156.47,184.61Zm6.61-108.09a56.53,56.53,0,0,1,2.24,26.67,28.87,28.87,0,0,0-5.29,2.64,30,30,0,0,0-8.76,8.55l.41-26.66a40.22,40.22,0,0,1,4.48-5.5A40.71,40.71,0,0,1,163.08,76.52Zm-12.51-6.31a4.89,4.89,0,1,1-4.88,4.89A4.89,4.89,0,0,1,150.57,70.21ZM136.12,88.94a56.92,56.92,0,0,1,2.64-12.42,41.12,41.12,0,0,1,6.93,5.7,40.07,40.07,0,0,1,4.47,5.5l.41,26.66a30.12,30.12,0,0,0-8.75-8.55,29.25,29.25,0,0,0-5.3-2.64A56.71,56.71,0,0,1,136.12,88.94Zm-2.43,35a30.71,30.71,0,0,1,2-6.38,42.59,42.59,0,0,1,6.74,6.63,42.15,42.15,0,0,1,5.59,9,22.06,22.06,0,0,0-2.2,3.81,22.32,22.32,0,0,0-1.92,8.91l-10.7-16.73A30.74,30.74,0,0,1,133.69,123.91Zm9.73,22.27a22.27,22.27,0,0,0-8.95-1.71,21.58,21.58,0,0,0-4.37.53,42.59,42.59,0,0,1-6.1-8.69,41.61,41.61,0,0,1-3.45-8.8,30.22,30.22,0,0,1,6.64.7,29.72,29.72,0,0,1,5,1.58Q137.83,138,143.42,146.18Zm-29.49,14.91a26.16,26.16,0,0,1,4.67-.54l15.06,9.28a19.86,19.86,0,0,0-7.9,1.84,19.09,19.09,0,0,0-3.37,2,37.5,37.5,0,0,1-14.11-10.76A26.56,26.56,0,0,1,113.93,161.09Zm-5-7a3.24,3.24,0,1,1,1,4.47A3.24,3.24,0,0,1,109,154.08Zm10.18,5.62a27.1,27.1,0,0,1-1.47-4.46,26.28,26.28,0,0,1-.72-5.91,37.58,37.58,0,0,1,15.7,8.26,19.19,19.19,0,0,0-.4,3.9,19.82,19.82,0,0,0,1.66,7.94Zm6.15-40.95a3.64,3.64,0,1,1-1,5A3.63,3.63,0,0,1,125.29,118.75Zm-22.6-20.19a37.11,37.11,0,0,1,1.56-8.15,52.59,52.59,0,0,1,9.22,7.28,52.06,52.06,0,0,1,8.13,10.39,26.94,26.94,0,0,0-2.21,5,27.82,27.82,0,0,0-1.18,11.26l-15.46-19.23A37.09,37.09,0,0,1,102.69,98.56ZM91.61,93.31A4.52,4.52,0,1,1,91,99.67,4.52,4.52,0,0,1,91.61,93.31Zm3.62,11.44a37.29,37.29,0,0,1,6.44,1.26l16,18.75a27.86,27.86,0,0,0-11.28-.91,26.9,26.9,0,0,0-5.33,1.24,52,52,0,0,1-8.71-9.91,52.56,52.56,0,0,1-5.46-10.4A37.25,37.25,0,0,1,95.23,104.75ZM81.59,178.69a3.24,3.24,0,1,1-2.18,4A3.24,3.24,0,0,1,81.59,178.69Zm-.53-5.12a37.71,37.71,0,0,1,16.53-6.45,19.55,19.55,0,0,0,9.77,6.81l-17,4.78A28,28,0,0,1,86,176.9,27,27,0,0,1,81.06,173.57Zm6.91,10a27.06,27.06,0,0,1,2.65-3.88l16.87-5.29a19.72,19.72,0,0,0-3.78,7.18,19.38,19.38,0,0,0-.69,3.86A37.49,37.49,0,0,1,85.65,189,26.76,26.76,0,0,1,88,183.55ZM85.49,132A47.83,47.83,0,0,1,97.3,133.6,23.56,23.56,0,0,0,99,138.24a24.94,24.94,0,0,0,6.31,8l-22.12-2.74a33.55,33.55,0,0,1-8.28-10.48A47.4,47.4,0,0,1,85.49,132ZM68.56,142.89a4.08,4.08,0,1,1,3.62,4.5A4.07,4.07,0,0,1,68.56,142.89ZM78.1,148a35,35,0,0,1,5-3.23l22.2,2.07a24.92,24.92,0,0,0-7.89,6.5,24.38,24.38,0,0,0-2.68,4.16,47.2,47.2,0,0,1-22-4.26A33.54,33.54,0,0,1,78.1,148Zm49.26,118H114.74L90.11,226.55V266h-13v-62.5h13l24.63,39.7v-39.7h12.62Zm29.93-17.1L153,253.21a46.33,46.33,0,0,1,2,5.29,45.35,45.35,0,0,1,1.42,5.91,25.2,25.2,0,0,0-6.46,15.2c-.06.87-.07,1.65,0,2.3h.79a2.26,2.26,0,0,1-2.11,1.72h-.21V265.35h0v18.28a2.26,2.26,0,0,1-2.11-1.72h0l.57-2.15h0a28.4,28.4,0,0,0-2.43-8.22,28.72,28.72,0,0,0-4.07-6.31c.22-1.82.55-3.8,1-5.9a62.71,62.71,0,0,1,1.83-6.51l-4.48-5.09a140.21,140.21,0,0,0,1.83-24.43c-.13-10.59-.19-15.89-2.64-22.19-4.76-12.22-14.4-19.36-18.32-22.19a57.88,57.88,0,0,0-9.37-5.49,53.5,53.5,0,0,1,12.45,5A44,44,0,0,1,132,185c5.15,4.85,12.69,14.67,13,15.11.83,1.08,2.24,2.95,4.28,3.06,2.33.11,4.13-2.1,5.09-3.26,1.94-2.36,9.43-12.7,14.86-15.68A35.51,35.51,0,0,1,184,179.93a41.12,41.12,0,0,0-8.34,3.87,42.36,42.36,0,0,0-15.47,16.69c-3.69,7.18-4.1,13.23-4.69,21.78A99.24,99.24,0,0,0,157.29,248.94ZM195.44,266H167.22v-62.5h12.1v51.37h16.12Zm2.06-84.24a19.72,19.72,0,0,0-3.78-7.18l16.88,5.29a27.47,27.47,0,0,1,2.65,3.89,26.93,26.93,0,0,1,2.31,5.47,37.49,37.49,0,0,1-17.37-3.61A19.51,19.51,0,0,0,197.5,181.8Zm37.35,34H212.14v11.06h22.71v11.49H212.14v16h22.71V266H200.24v-62.5h34.61Z"/><path class="cls-1" d="M148,265.11a.74.74,0,0,0,.46.24h0A.79.79,0,0,1,148,265.11Z"/><path class="cls-2" d="M300.38,394v73.29a19.31,19.31,0,0,1-19.31,19.31H22.31A19.31,19.31,0,0,1,3,467.27V393.84a5.69,5.69,0,0,1,7.43-5.42h0a15.08,15.08,0,0,0,2.52,1l59.94,19,.39.12L147,432a14.31,14.31,0,0,0,8.64,0l53.29-16.91.83-.27,79.88-25.37a15,15,0,0,0,2.88-1.23h0A6,6,0,0,1,300.38,394Z"/></g></g></svg>