<svg xmlns="http://www.w3.org/2000/svg" viewBox="0 0 500 500"><defs><style>.cls-1{fill:#1d4da0;}.cls-2{fill:#fff;}.cls-3{fill:#f6f6f6;}.cls-4{fill:none;}.cls-5{fill:#70bf5c;}</style></defs><g id="Layer_2" data-name="Layer 2"><g id="Layer_1-2" data-name="Layer 1"><path class="cls-1" d="M243.28,391.93a.91.91,0,0,0-.38,0,1.4,1.4,0,0,0,0,2.78v34.47h.38V394.71a1.4,1.4,0,0,0,0-2.78Zm0,37.25a4.31,4.31,0,0,0,4-3.24ZM476,382.9V23.6A23.6,23.6,0,0,0,452.41,0H46.05a23.61,23.61,0,0,0-23.6,23.6V397.54c.06,10.87.13,21.75,0,26.86,56.1,1.23,110.11.35,166,1.38a116.05,116.05,0,0,1,17.44,1.65c47.24,8,60.57,16.88,61.37,24.6,1.15,11.13-9.35,12.83-6.91,22.26,1.66,6.41,7.3,11.32,14,15.15,5.27,3,15.35,6.1,29,7.1l175,1.54C478.06,464.05,476.27,416.92,476,382.9Z"/><circle class="cls-2" cx="246.93" cy="36.07" r="9.21"/><path class="cls-2" d="M246.16,59.87q.39,25.13.77,50.26A56.4,56.4,0,0,0,230.43,94a54.49,54.49,0,0,0-10-5,106.86,106.86,0,0,1,4.23-50.27,77,77,0,0,1,13,10.74A75.89,75.89,0,0,1,246.16,59.87Z"/><path class="cls-2" d="M249,59.87q-.37,25.13-.77,50.26A56.66,56.66,0,0,1,264.75,94a55.13,55.13,0,0,1,10-5,106.69,106.69,0,0,0-4.22-50.27A77.45,77.45,0,0,0,257.46,49.5,76.65,76.65,0,0,0,249,59.87Z"/><path class="cls-2" d="M108.41,278.21V396H133V321.57L179.4,396h23.79V278.21H179.4V353Q156.18,315.62,133,278.21Z"/><polygon class="cls-2" points="331.52 396.01 278.31 396.01 278.31 278.21 301.12 278.21 301.12 375.03 331.52 375.03 331.52 396.01"/><polygon class="cls-2" points="405.8 278.21 405.8 301.31 362.99 301.31 362.99 322.16 405.8 322.16 405.8 343.82 362.99 343.82 362.99 373.97 405.8 373.97 405.8 396.01 340.56 396.01 340.56 278.21 405.8 278.21"/><circle class="cls-3" cx="245.4" cy="242.52" r="12.66" transform="translate(-99.61 244.55) rotate(-45)"/><path class="cls-2" d="M282.23,241.75c-10.23,5.62-24.34,25.1-28,29.54-1.81,2.19-5.2,6.37-9.59,6.14-3.84-.19-6.51-3.73-8.06-5.75-.64-.84-14.86-19.35-24.56-28.49a82.28,82.28,0,0,0-17.6-12.4A101,101,0,0,0,171,221.41a109.08,109.08,0,0,1,17.65,10.36c7.39,5.33,25.56,18.78,34.54,41.83,4.62,11.87,4.74,21.86,5,41.82a265.64,265.64,0,0,1-3.46,46.05l8.44,9.59a117.88,117.88,0,0,0-3.45,12.28c-.88,4-1.5,7.7-1.92,11.13A53.24,53.24,0,0,1,240,421.87c.2,1.5.33,2.86.4,4.07h-1.49a4.31,4.31,0,0,0,4,3.24V394.71a1.4,1.4,0,0,1,0-2.78.91.91,0,0,1,.38,0,1.4,1.4,0,0,1,0,2.78v34.47a4.31,4.31,0,0,0,4-3.24h-1.49c0-1.24,0-2.7.09-4.35a47.53,47.53,0,0,1,12.19-28.65,85.31,85.31,0,0,0-2.69-11.13,86.57,86.57,0,0,0-3.84-10l8.06-8.06a187.22,187.22,0,0,1-3.45-50.27c1.1-16.12,1.87-27.53,8.82-41.05A80,80,0,0,1,294.13,241a77.14,77.14,0,0,1,15.73-7.29A66.85,66.85,0,0,0,282.23,241.75Z"/><path class="cls-4" d="M240,421.87c.21,1.5.33,2.87.41,4.07h-1.49"/><path class="cls-4" d="M243.29,429.18V394.71a1.4,1.4,0,0,0,0-2.77.68.68,0,0,0-.2,0,.65.65,0,0,0-.19,0,1.4,1.4,0,0,0,0,2.77v34.47"/><path class="cls-5" d="M21.68,428.63V500Q43.52,493.1,67.35,487c33.73-8.63,60.66-10.55,114.35-21.1,28.37-5.58,41.53-8.92,41.82-14.2.33-6-17.35-11.8-23.4-13.81a91.2,91.2,0,0,0-26.86-4.61Z"/><circle class="cls-3" cx="141.24" cy="76.96" r="8.52"/><path class="cls-3" d="M154.75,94.36,185,129.7A52.4,52.4,0,0,0,163.72,128a50.87,50.87,0,0,0-10.05,2.35A98.82,98.82,0,0,1,127,92a71,71,0,0,1,27.78,2.34Z"/><path class="cls-3" d="M156.78,92.67l29.16,36.25a52.28,52.28,0,0,1,2.22-21.23,51.34,51.34,0,0,1,4.16-9.44,98.55,98.55,0,0,0-32.71-33.31,71.42,71.42,0,0,0-2.94,15.36A70.59,70.59,0,0,0,156.78,92.67Z"/><circle class="cls-3" cx="352.07" cy="76.96" r="8.52"/><path class="cls-3" d="M338.56,94.36,308.32,129.7A52.4,52.4,0,0,1,329.59,128a50.87,50.87,0,0,1,10.05,2.35A98.82,98.82,0,0,0,366.34,92a71,71,0,0,0-27.78,2.34Z"/><path class="cls-3" d="M336.53,92.67l-29.16,36.25a52.28,52.28,0,0,0-2.22-21.23A51.34,51.34,0,0,0,301,98.25,98.55,98.55,0,0,1,333.7,64.94a71.42,71.42,0,0,1,2.94,15.36A70.59,70.59,0,0,1,336.53,92.67Z"/><circle class="cls-2" cx="203.06" cy="124.08" r="6.86"/><path class="cls-2" d="M212.35,139.17l21.1,30.91a42,42,0,0,0-16.86-3.24,40.72,40.72,0,0,0-8.24,1,79.2,79.2,0,0,1-18-33,57,57,0,0,1,22,4.29Z"/><path class="cls-2" d="M214.12,138q10.08,15.76,20.15,31.54a42.23,42.23,0,0,1,3.64-16.79,40.67,40.67,0,0,1,4.15-7.19,79.42,79.42,0,0,0-23.26-29.49A57,57,0,0,0,214.12,138Z"/><circle class="cls-2" cx="291.83" cy="124.08" r="6.86"/><path class="cls-2" d="M282.54,139.17l-21.11,30.91a42,42,0,0,1,16.87-3.24,40.81,40.81,0,0,1,8.24,1,79.5,79.5,0,0,0,18-33,57,57,0,0,0-22,4.29Z"/><path class="cls-2" d="M280.77,138l-20.16,31.54A42,42,0,0,0,257,152.75a41.3,41.3,0,0,0-4.15-7.19,79.27,79.27,0,0,1,23.25-29.49A57.3,57.3,0,0,1,280.77,138Z"/><circle class="cls-2" cx="173.64" cy="188.24" r="6.11"/><path class="cls-2" d="M186.67,197.15l28.38,17.5a37.24,37.24,0,0,0-14.9,3.48,36.83,36.83,0,0,0-6.34,3.79,70.64,70.64,0,0,1-26.6-20.28,50.93,50.93,0,0,1,19.46-4.49Z"/><path class="cls-2" d="M187.69,195.55l27.83,18.36a37.53,37.53,0,0,1-3.13-15,37,37,0,0,1,.77-7.35A70.73,70.73,0,0,0,183.55,176a50.36,50.36,0,0,0,4.14,19.54Z"/><circle class="cls-3" cx="320.61" cy="188.24" r="6.11"/><path class="cls-3" d="M307.58,197.15l-28.38,17.5a37.17,37.17,0,0,1,14.89,3.48,36.57,36.57,0,0,1,6.35,3.79A70.64,70.64,0,0,0,327,201.64a50.93,50.93,0,0,0-19.46-4.49Z"/><path class="cls-3" d="M306.56,195.55l-27.83,18.36a37.7,37.7,0,0,0,3.13-15,37,37,0,0,0-.77-7.35A70.73,70.73,0,0,1,310.7,176a50.86,50.86,0,0,1-4.14,19.54Z"/><circle class="cls-2" cx="118.64" cy="237.2" r="6.11"/><path class="cls-2" d="M133.91,233.2l31.82-10a37.39,37.39,0,0,0-7.14,13.53A36.88,36.88,0,0,0,157.3,244a70.62,70.62,0,0,1-32.75,6.8,50.82,50.82,0,0,1,9.36-17.64Z"/><path class="cls-2" d="M133.37,231.38l32.11-9a37.41,37.41,0,0,1-13.36-7.45,36.78,36.78,0,0,1-5.06-5.4,70.76,70.76,0,0,0-31.16,12.17,50.76,50.76,0,0,0,9.3,6.26A49.85,49.85,0,0,0,133.37,231.38Z"/><circle class="cls-3" cx="375.35" cy="237.66" r="6.11"/><path class="cls-3" d="M360.08,233.66l-31.81-10a37.25,37.25,0,0,1,7.13,13.53,36,36,0,0,1,1.29,7.28,70.63,70.63,0,0,0,32.76,6.8A51.48,51.48,0,0,0,365.08,241,50.8,50.8,0,0,0,360.08,233.66Z"/><path class="cls-3" d="M360.62,231.84l-32.1-9a37.57,37.57,0,0,0,13.36-7.45,37.17,37.17,0,0,0,5.05-5.4,70.59,70.59,0,0,1,31.16,12.16,50.58,50.58,0,0,1-17.47,9.68Z"/><circle class="cls-2" cx="99.99" cy="164.69" r="7.7"/><path class="cls-2" d="M119.69,167.47l41.85,3.9a47.19,47.19,0,0,0-14.88,12.26,46,46,0,0,0-5,7.84,89.15,89.15,0,0,1-41.4-8,64.32,64.32,0,0,1,19.48-16Z"/><path class="cls-2" d="M120,165.1l41.71,5.17a47.35,47.35,0,0,1-11.91-15.17,45.85,45.85,0,0,1-3.24-8.74,89.16,89.16,0,0,0-42.16-1A63.89,63.89,0,0,0,120,165.1Z"/><circle class="cls-3" cx="394.39" cy="164.69" r="7.7"/><path class="cls-3" d="M374.68,167.47l-41.84,3.9a47.3,47.3,0,0,1,14.88,12.26,46.52,46.52,0,0,1,5,7.84,89.08,89.08,0,0,0,41.4-8,64,64,0,0,0-19.48-16Z"/><path class="cls-3" d="M374.43,165.1l-41.71,5.17a47.34,47.34,0,0,0,11.9-15.17,45.94,45.94,0,0,0,3.25-8.74,89.16,89.16,0,0,1,42.16-1,63.89,63.89,0,0,1-15.6,19.76Z"/><rect class="cls-4" width="500" height="500"/></g></g></svg>